<?xml version="1.0" encoding="UTF-8" standalone="no"?>
<!DOCTYPE svg PUBLIC "-//W3C//DTD SVG 1.1//EN"
 "http://www.w3.org/Graphics/SVG/1.1/DTD/svg11.dtd">
<!-- Generated by graphviz version 15.0.0 (20260523.1842)
 -->
<!-- Title: TaskComposer Pages: 1 -->
<svg width="787pt" height="543pt"
 viewBox="0.00 0.00 787.00 543.00" xmlns="http://www.w3.org/2000/svg" xmlns:xlink="http://www.w3.org/1999/xlink">
<g id="graph0" class="graph" transform="scale(1 1) rotate(0) translate(4 539)">
<title>TaskComposer</title>
<polygon fill="white" stroke="none" points="-4,4 -4,-539 782.53,-539 782.53,4 -4,4"/>
<g id="clust1" class="cluster">
<title>cluster_7904081502e94b61a5109189ae57be87</title>
<polygon fill="white" stroke="black" points="8,-273.5 8,-527 212,-527 212,-273.5 8,-273.5"/>
<text xml:space="preserve" text-anchor="middle" x="110" y="-509.7" font-family="Times,serif" font-size="14.00">CartesianPipeline</text>
</g>
<g id="clust2" class="cluster">
<title>cluster_ae10a70db1a04279842fe9843c48e5ed</title>
<polygon fill="white" stroke="black" points="220,-8 220,-527 762,-527 762,-8 220,-8"/>
<text xml:space="preserve" text-anchor="middle" x="491" y="-509.7" font-family="Times,serif" font-size="14.00">MotionPlanningTask</text>
</g>
<!-- node_4c2246ec67bc49c8adf7b32cc1c5ed90 -->
<g id="node1" class="node">
<title>node_4c2246ec67bc49c8adf7b32cc1c5ed90</title>
<ellipse fill="white" stroke="black" cx="110" cy="-476.5" rx="76.43" ry="18"/>
<text xml:space="preserve" text-anchor="middle" x="110" y="-471.45" font-family="Times,serif" font-size="14.00">ProcessInputTask</text>
</g>
<!-- node_63ddfe5c5f674b9eae6b2317f0108999 -->
<g id="node2" class="node">
<title>node_63ddfe5c5f674b9eae6b2317f0108999</title>
<ellipse fill="white" stroke="black" cx="110" cy="-388" rx="75.41" ry="18"/>
<text xml:space="preserve" text-anchor="middle" x="110" y="-382.95" font-family="Times,serif" font-size="14.00">FormatInputTask</text>
</g>
<!-- node_4c2246ec67bc49c8adf7b32cc1c5ed90&#45;&gt;node_63ddfe5c5f674b9eae6b2317f0108999 -->
<g id="edge1" class="edge">
<title>node_4c2246ec67bc49c8adf7b32cc1c5ed90&#45;&gt;node_63ddfe5c5f674b9eae6b2317f0108999</title>
<path fill="none" stroke="black" d="M110,-458.41C110,-446.76 110,-431.05 110,-417.52"/>
<polygon fill="black" stroke="black" points="113.5,-417.86 110,-407.86 106.5,-417.86 113.5,-417.86"/>
</g>
<!-- node_ae10a70db1a04279842fe9843c48e5ed -->
<g id="node3" class="node">
<title>node_ae10a70db1a04279842fe9843c48e5ed</title>
<polygon fill="none" stroke="blue" points="204.2,-317.5 19.8,-317.5 15.8,-313.5 15.8,-281.5 200.2,-281.5 204.2,-285.5 204.2,-317.5"/>
<polyline fill="none" stroke="blue" points="200.2,-313.5 15.8,-313.5"/>
<polyline fill="none" stroke="blue" points="200.2,-313.5 200.2,-281.5"/>
<polyline fill="none" stroke="blue" points="200.2,-313.5 204.2,-317.5"/>
<text xml:space="preserve" text-anchor="middle" x="110" y="-294.45" font-family="Times,serif" font-size="14.00">Subgraph: MotionPlanningTask</text>
</g>
<!-- node_63ddfe5c5f674b9eae6b2317f0108999&#45;&gt;node_ae10a70db1a04279842fe9843c48e5ed -->
<g id="edge2" class="edge">
<title>node_63ddfe5c5f674b9eae6b2317f0108999&#45;&gt;node_ae10a70db1a04279842fe9843c48e5ed</title>
<path fill="none" stroke="black" d="M110,-369.91C110,-358.26 110,-342.55 110,-329.02"/>
<polygon fill="black" stroke="black" points="113.5,-329.36 110,-319.36 106.5,-329.36 113.5,-329.36"/>
</g>
<!-- node_31c426c9281c4e96b7b4802b9c0974d6 -->
<g id="node4" class="node">
<title>node_31c426c9281c4e96b7b4802b9c0974d6</title>
<polygon fill="white" stroke="black" points="455,-140.5 248.47,-122.5 455,-104.5 661.53,-122.5 455,-140.5"/>
<text xml:space="preserve" text-anchor="middle" x="455" y="-117.45" font-family="Times,serif" font-size="14.00">IterativeSplineParameterizationTask</text>
</g>
<!-- node_d0d43567a7fa4bdea22e46773269a01f -->
<g id="node5" class="node">
<title>node_d0d43567a7fa4bdea22e46773269a01f</title>
<ellipse fill="white" stroke="black" cx="698" cy="-34" rx="48.28" ry="18"/>
<text xml:space="preserve" text-anchor="middle" x="698" y="-28.95" font-family="Times,serif" font-size="14.00">ErrorTask</text>
</g>
<!-- node_31c426c9281c4e96b7b4802b9c0974d6&#45;&gt;node_d0d43567a7fa4bdea22e46773269a01f -->
<g id="edge3" class="edge">
<title>node_31c426c9281c4e96b7b4802b9c0974d6&#45;&gt;node_d0d43567a7fa4bdea22e46773269a01f</title>
<path fill="none" stroke="black" stroke-dasharray="5,2" d="M494.31,-107.51C537.74,-92.05 607.56,-67.2 653.1,-50.98"/>
<polygon fill="black" stroke="black" points="654.18,-54.32 662.42,-47.66 651.83,-47.72 654.18,-54.32"/>
<text xml:space="preserve" text-anchor="middle" x="606.14" y="-73.2" font-family="Times,serif" font-size="14.00">[0]</text>
</g>
<!-- node_e7007161cf114114977a89cd9bd569a8 -->
<g id="node6" class="node">
<title>node_e7007161cf114114977a89cd9bd569a8</title>
<ellipse fill="white" stroke="black" cx="455" cy="-34" rx="48.79" ry="18"/>
<text xml:space="preserve" text-anchor="middle" x="455" y="-28.95" font-family="Times,serif" font-size="14.00">DoneTask</text>
</g>
<!-- node_31c426c9281c4e96b7b4802b9c0974d6&#45;&gt;node_e7007161cf114114977a89cd9bd569a8 -->
<g id="edge4" class="edge">
<title>node_31c426c9281c4e96b7b4802b9c0974d6&#45;&gt;node_e7007161cf114114977a89cd9bd569a8</title>
<path fill="none" stroke="black" stroke-dasharray="5,2" d="M455,-104.41C455,-92.76 455,-77.05 455,-63.52"/>
<polygon fill="black" stroke="black" points="458.5,-63.86 455,-53.86 451.5,-63.86 458.5,-63.86"/>
<text xml:space="preserve" text-anchor="middle" x="462.88" y="-73.2" font-family="Times,serif" font-size="14.00">[1]</text>
</g>
<!-- node_4b2c9cdfa12342aea9d130c648acef7f -->
<g id="node7" class="node">
<title>node_4b2c9cdfa12342aea9d130c648acef7f</title>
<polygon fill="white" stroke="black" points="551,-317.5 390.07,-299.5 551,-281.5 711.93,-299.5 551,-317.5"/>
<text xml:space="preserve" text-anchor="middle" x="551" y="-294.45" font-family="Times,serif" font-size="14.00">TrajOptMotionPlannerTask</text>
</g>
<!-- node_4b2c9cdfa12342aea9d130c648acef7f&#45;&gt;node_d0d43567a7fa4bdea22e46773269a01f -->
<g id="edge5" class="edge">
<title>node_4b2c9cdfa12342aea9d130c648acef7f&#45;&gt;node_d0d43567a7fa4bdea22e46773269a01f</title>
<path fill="none" stroke="black" stroke-dasharray="5,2" d="M618.62,-288.62C654.6,-279.54 695.87,-262.18 718,-229 735.67,-202.51 716.58,-110.25 705.21,-63.14"/>
<polygon fill="black" stroke="black" points="708.67,-62.54 702.87,-53.67 701.87,-64.22 708.67,-62.54"/>
<text xml:space="preserve" text-anchor="middle" x="732.31" y="-161.7" font-family="Times,serif" font-size="14.00">[0]</text>
</g>
<!-- node_c80e27cca46945af8fe6d3fe60a118ea -->
<g id="node8" class="node">
<title>node_c80e27cca46945af8fe6d3fe60a118ea</title>
<polygon fill="white" stroke="black" points="551,-229 392.97,-211 551,-193 709.03,-211 551,-229"/>
<text xml:space="preserve" text-anchor="middle" x="551" y="-205.95" font-family="Times,serif" font-size="14.00">DiscreteContactCheckTask</text>
</g>
<!-- node_4b2c9cdfa12342aea9d130c648acef7f&#45;&gt;node_c80e27cca46945af8fe6d3fe60a118ea -->
<g id="edge6" class="edge">
<title>node_4b2c9cdfa12342aea9d130c648acef7f&#45;&gt;node_c80e27cca46945af8fe6d3fe60a118ea</title>
<path fill="none" stroke="black" stroke-dasharray="5,2" d="M551,-281.41C551,-269.76 551,-254.05 551,-240.52"/>
<polygon fill="black" stroke="black" points="554.5,-240.86 551,-230.86 547.5,-240.86 554.5,-240.86"/>
<text xml:space="preserve" text-anchor="middle" x="558.88" y="-250.2" font-family="Times,serif" font-size="14.00">[1]</text>
</g>
<!-- node_c80e27cca46945af8fe6d3fe60a118ea&#45;&gt;node_31c426c9281c4e96b7b4802b9c0974d6 -->
<g id="edge12" class="edge">
<title>node_c80e27cca46945af8fe6d3fe60a118ea&#45;&gt;node_31c426c9281c4e96b7b4802b9c0974d6</title>
<path fill="none" stroke="black" stroke-dasharray="5,2" d="M533.84,-194.54C519.14,-181.29 497.76,-162.03 480.97,-146.9"/>
<polygon fill="black" stroke="black" points="483.56,-144.52 473.79,-140.43 478.87,-149.72 483.56,-144.52"/>
<text xml:space="preserve" text-anchor="middle" x="519.47" y="-161.7" font-family="Times,serif" font-size="14.00">[1]</text>
</g>
<!-- node_c80e27cca46945af8fe6d3fe60a118ea&#45;&gt;node_d0d43567a7fa4bdea22e46773269a01f -->
<g id="edge11" class="edge">
<title>node_c80e27cca46945af8fe6d3fe60a118ea&#45;&gt;node_d0d43567a7fa4bdea22e46773269a01f</title>
<path fill="none" stroke="black" stroke-dasharray="5,2" d="M589.48,-196.91C616.18,-185.9 650.51,-167.56 671,-140.5 687.84,-118.27 694.23,-86.64 696.63,-63.81"/>
<polygon fill="black" stroke="black" points="700.11,-64.23 697.45,-53.97 693.14,-63.65 700.11,-64.23"/>
<text xml:space="preserve" text-anchor="middle" x="696.18" y="-117.45" font-family="Times,serif" font-size="14.00">[0]</text>
</g>
<!-- node_4ea1fba4984649e5adf634caa5c124d6 -->
<g id="node9" class="node">
<title>node_4ea1fba4984649e5adf634caa5c124d6</title>
<polygon fill="white" stroke="black" points="549,-406 378.66,-388 549,-370 719.34,-388 549,-406"/>
<text xml:space="preserve" text-anchor="middle" x="549" y="-382.95" font-family="Times,serif" font-size="14.00">DescartesMotionPlannerTask</text>
</g>
<!-- node_4ea1fba4984649e5adf634caa5c124d6&#45;&gt;node_d0d43567a7fa4bdea22e46773269a01f -->
<g id="edge7" class="edge">
<title>node_4ea1fba4984649e5adf634caa5c124d6&#45;&gt;node_d0d43567a7fa4bdea22e46773269a01f</title>
<path fill="none" stroke="black" stroke-dasharray="5,2" d="M501.92,-374.51C466.31,-363.48 417.49,-344.86 381,-317.5 289.98,-249.24 165.29,-191.17 239,-104.5 251.96,-89.26 521.04,-55.84 641.06,-41.62"/>
<polygon fill="black" stroke="black" points="641.18,-45.13 650.7,-40.48 640.36,-38.18 641.18,-45.13"/>
<text xml:space="preserve" text-anchor="middle" x="267.35" y="-205.95" font-family="Times,serif" font-size="14.00">[0]</text>
</g>
<!-- node_4ea1fba4984649e5adf634caa5c124d6&#45;&gt;node_4b2c9cdfa12342aea9d130c648acef7f -->
<g id="edge8" class="edge">
<title>node_4ea1fba4984649e5adf634caa5c124d6&#45;&gt;node_4b2c9cdfa12342aea9d130c648acef7f</title>
<path fill="none" stroke="black" stroke-dasharray="5,2" d="M549.4,-369.91C549.66,-358.26 550.03,-342.55 550.34,-329.02"/>
<polygon fill="black" stroke="black" points="553.83,-329.44 550.56,-319.36 546.83,-329.28 553.83,-329.44"/>
<text xml:space="preserve" text-anchor="middle" x="558.05" y="-338.7" font-family="Times,serif" font-size="14.00">[1]</text>
</g>
<!-- node_bd9c15a16d6e413b9c0ee414f4ec5772 -->
<g id="node10" class="node">
<title>node_bd9c15a16d6e413b9c0ee414f4ec5772</title>
<polygon fill="white" stroke="black" points="602,-494.5 501.87,-476.5 602,-458.5 702.13,-476.5 602,-494.5"/>
<text xml:space="preserve" text-anchor="middle" x="602" y="-471.45" font-family="Times,serif" font-size="14.00">MinLengthTask</text>
</g>
<!-- node_bd9c15a16d6e413b9c0ee414f4ec5772&#45;&gt;node_d0d43567a7fa4bdea22e46773269a01f -->
<g id="edge9" class="edge">
<title>node_bd9c15a16d6e413b9c0ee414f4ec5772&#45;&gt;node_d0d43567a7fa4bdea22e46773269a01f</title>
<path fill="none" stroke="black" stroke-dasharray="5,2" d="M640.93,-465.06C670.16,-455.03 708.38,-436.75 728,-406 787.29,-313.08 761.93,-267.26 744,-158.5 738.32,-124.04 723.06,-86.78 711.67,-62.3"/>
<polygon fill="black" stroke="black" points="714.87,-60.88 707.4,-53.37 708.55,-63.9 714.87,-60.88"/>
<text xml:space="preserve" text-anchor="middle" x="770.66" y="-250.2" font-family="Times,serif" font-size="14.00">[0]</text>
</g>
<!-- node_bd9c15a16d6e413b9c0ee414f4ec5772&#45;&gt;node_4ea1fba4984649e5adf634caa5c124d6 -->
<g id="edge10" class="edge">
<title>node_bd9c15a16d6e413b9c0ee414f4ec5772&#45;&gt;node_4ea1fba4984649e5adf634caa5c124d6</title>
<path fill="none" stroke="black" stroke-dasharray="5,2" d="M592.52,-460.04C584.83,-447.48 573.82,-429.51 564.8,-414.78"/>
<polygon fill="black" stroke="black" points="567.93,-413.2 559.72,-406.5 561.96,-416.86 567.93,-413.2"/>
<text xml:space="preserve" text-anchor="middle" x="588.12" y="-427.2" font-family="Times,serif" font-size="14.00">[1]</text>
</g>
</g>
</svg>
