<?xml version="1.0" encoding="UTF-8" standalone="no"?>
<!DOCTYPE svg PUBLIC "-//W3C//DTD SVG 1.1//EN"
 "http://www.w3.org/Graphics/SVG/1.1/DTD/svg11.dtd">
<!-- Generated by graphviz version 15.0.0 (20260523.1842)
 -->
<!-- Title: TaskComposer Pages: 1 -->
<svg width="795pt" height="543pt"
 viewBox="0.00 0.00 795.00 543.00" xmlns="http://www.w3.org/2000/svg" xmlns:xlink="http://www.w3.org/1999/xlink">
<g id="graph0" class="graph" transform="scale(1 1) rotate(0) translate(4 539)">
<title>TaskComposer</title>
<polygon fill="white" stroke="none" points="-4,4 -4,-539 791.29,-539 791.29,4 -4,4"/>
<g id="clust1" class="cluster">
<title>cluster_9e2c9e2b44834e8eb66c428904fed93a</title>
<polygon fill="white" stroke="black" points="8,-273.5 8,-527 212,-527 212,-273.5 8,-273.5"/>
<text xml:space="preserve" text-anchor="middle" x="110" y="-509.7" font-family="Times,serif" font-size="14.00">FreespacePipeline</text>
</g>
<g id="clust2" class="cluster">
<title>cluster_94af14ba27a54c7c8b1020e9a6fdfd0f</title>
<polygon fill="white" stroke="black" points="220,-8 220,-527 762,-527 762,-8 220,-8"/>
<text xml:space="preserve" text-anchor="middle" x="491" y="-509.7" font-family="Times,serif" font-size="14.00">MotionPlanningTask</text>
</g>
<!-- node_7ce99920ee1549f18af7117895efc096 -->
<g id="node1" class="node">
<title>node_7ce99920ee1549f18af7117895efc096</title>
<ellipse fill="white" stroke="black" cx="110" cy="-388" rx="75.41" ry="18"/>
<text xml:space="preserve" text-anchor="middle" x="110" y="-382.95" font-family="Times,serif" font-size="14.00">FormatInputTask</text>
</g>
<!-- node_94af14ba27a54c7c8b1020e9a6fdfd0f -->
<g id="node2" class="node">
<title>node_94af14ba27a54c7c8b1020e9a6fdfd0f</title>
<polygon fill="none" stroke="blue" points="204.2,-317.5 19.8,-317.5 15.8,-313.5 15.8,-281.5 200.2,-281.5 204.2,-285.5 204.2,-317.5"/>
<polyline fill="none" stroke="blue" points="200.2,-313.5 15.8,-313.5"/>
<polyline fill="none" stroke="blue" points="200.2,-313.5 200.2,-281.5"/>
<polyline fill="none" stroke="blue" points="200.2,-313.5 204.2,-317.5"/>
<text xml:space="preserve" text-anchor="middle" x="110" y="-294.45" font-family="Times,serif" font-size="14.00">Subgraph: MotionPlanningTask</text>
</g>
<!-- node_7ce99920ee1549f18af7117895efc096&#45;&gt;node_94af14ba27a54c7c8b1020e9a6fdfd0f -->
<g id="edge1" class="edge">
<title>node_7ce99920ee1549f18af7117895efc096&#45;&gt;node_94af14ba27a54c7c8b1020e9a6fdfd0f</title>
<path fill="none" stroke="black" d="M110,-369.91C110,-358.26 110,-342.55 110,-329.02"/>
<polygon fill="black" stroke="black" points="113.5,-329.36 110,-319.36 106.5,-329.36 113.5,-329.36"/>
</g>
<!-- node_fe4e4811e03a458c9c2cb7ca8896ccd0 -->
<g id="node3" class="node">
<title>node_fe4e4811e03a458c9c2cb7ca8896ccd0</title>
<ellipse fill="white" stroke="black" cx="110" cy="-476.5" rx="76.43" ry="18"/>
<text xml:space="preserve" text-anchor="middle" x="110" y="-471.45" font-family="Times,serif" font-size="14.00">ProcessInputTask</text>
</g>
<!-- node_fe4e4811e03a458c9c2cb7ca8896ccd0&#45;&gt;node_7ce99920ee1549f18af7117895efc096 -->
<g id="edge2" class="edge">
<title>node_fe4e4811e03a458c9c2cb7ca8896ccd0&#45;&gt;node_7ce99920ee1549f18af7117895efc096</title>
<path fill="none" stroke="black" d="M110,-458.41C110,-446.76 110,-431.05 110,-417.52"/>
<polygon fill="black" stroke="black" points="113.5,-417.86 110,-407.86 106.5,-417.86 113.5,-417.86"/>
</g>
<!-- node_0887059c203a471ebc3f1694054d5e66 -->
<g id="node4" class="node">
<title>node_0887059c203a471ebc3f1694054d5e66</title>
<polygon fill="white" stroke="black" points="562,-406 405.42,-388 562,-370 718.58,-388 562,-406"/>
<text xml:space="preserve" text-anchor="middle" x="562" y="-382.95" font-family="Times,serif" font-size="14.00">OMPLMotionPlannerTask</text>
</g>
<!-- node_6f38c90d90d24da0b82a005d7e77c99c -->
<g id="node5" class="node">
<title>node_6f38c90d90d24da0b82a005d7e77c99c</title>
<ellipse fill="white" stroke="black" cx="706" cy="-34" rx="48.28" ry="18"/>
<text xml:space="preserve" text-anchor="middle" x="706" y="-28.95" font-family="Times,serif" font-size="14.00">ErrorTask</text>
</g>
<!-- node_0887059c203a471ebc3f1694054d5e66&#45;&gt;node_6f38c90d90d24da0b82a005d7e77c99c -->
<g id="edge3" class="edge">
<title>node_0887059c203a471ebc3f1694054d5e66&#45;&gt;node_6f38c90d90d24da0b82a005d7e77c99c</title>
<path fill="none" stroke="black" stroke-dasharray="5,2" d="M612.32,-375.36C643.76,-365.38 682.27,-347.68 704,-317.5 713.33,-304.54 721.94,-190.94 723,-175 723.49,-167.68 723.33,-165.83 723,-158.5 721.22,-119.05 721.72,-108.92 715,-70 714.62,-67.82 714.18,-65.58 713.7,-63.33"/>
<polygon fill="black" stroke="black" points="717.14,-62.7 711.4,-53.8 710.34,-64.34 717.14,-62.7"/>
<text xml:space="preserve" text-anchor="middle" x="729.52" y="-205.95" font-family="Times,serif" font-size="14.00">[0]</text>
</g>
<!-- node_f48f8d46e6e14a57b880d75e8a87bd40 -->
<g id="node6" class="node">
<title>node_f48f8d46e6e14a57b880d75e8a87bd40</title>
<polygon fill="white" stroke="black" points="534,-317.5 373.07,-299.5 534,-281.5 694.93,-299.5 534,-317.5"/>
<text xml:space="preserve" text-anchor="middle" x="534" y="-294.45" font-family="Times,serif" font-size="14.00">TrajOptMotionPlannerTask</text>
</g>
<!-- node_0887059c203a471ebc3f1694054d5e66&#45;&gt;node_f48f8d46e6e14a57b880d75e8a87bd40 -->
<g id="edge4" class="edge">
<title>node_0887059c203a471ebc3f1694054d5e66&#45;&gt;node_f48f8d46e6e14a57b880d75e8a87bd40</title>
<path fill="none" stroke="black" stroke-dasharray="5,2" d="M556.6,-370.32C552.73,-358.36 547.42,-341.96 542.92,-328.06"/>
<polygon fill="black" stroke="black" points="546.26,-327 539.85,-318.57 539.6,-329.16 546.26,-327"/>
<text xml:space="preserve" text-anchor="middle" x="558.38" y="-338.7" font-family="Times,serif" font-size="14.00">[1]</text>
</g>
<!-- node_f48f8d46e6e14a57b880d75e8a87bd40&#45;&gt;node_6f38c90d90d24da0b82a005d7e77c99c -->
<g id="edge11" class="edge">
<title>node_f48f8d46e6e14a57b880d75e8a87bd40&#45;&gt;node_6f38c90d90d24da0b82a005d7e77c99c</title>
<path fill="none" stroke="black" stroke-dasharray="5,2" d="M578.75,-286.01C608.81,-275.43 647.15,-257.38 671,-229 710.59,-181.88 711.83,-105.23 709.06,-63.79"/>
<polygon fill="black" stroke="black" points="712.56,-63.57 708.26,-53.88 705.58,-64.13 712.56,-63.57"/>
<text xml:space="preserve" text-anchor="middle" x="710.85" y="-161.7" font-family="Times,serif" font-size="14.00">[0]</text>
</g>
<!-- node_0df7e13080ed46f6bae9ad8ec353c159 -->
<g id="node7" class="node">
<title>node_0df7e13080ed46f6bae9ad8ec353c159</title>
<polygon fill="white" stroke="black" points="504,-229 345.97,-211 504,-193 662.03,-211 504,-229"/>
<text xml:space="preserve" text-anchor="middle" x="504" y="-205.95" font-family="Times,serif" font-size="14.00">DiscreteContactCheckTask</text>
</g>
<!-- node_f48f8d46e6e14a57b880d75e8a87bd40&#45;&gt;node_0df7e13080ed46f6bae9ad8ec353c159 -->
<g id="edge12" class="edge">
<title>node_f48f8d46e6e14a57b880d75e8a87bd40&#45;&gt;node_0df7e13080ed46f6bae9ad8ec353c159</title>
<path fill="none" stroke="black" stroke-dasharray="5,2" d="M528.22,-281.82C524.02,-269.74 518.26,-253.13 513.41,-239.14"/>
<polygon fill="black" stroke="black" points="516.85,-238.36 510.26,-230.06 510.23,-240.65 516.85,-238.36"/>
<text xml:space="preserve" text-anchor="middle" x="529.56" y="-250.2" font-family="Times,serif" font-size="14.00">[1]</text>
</g>
<!-- node_0df7e13080ed46f6bae9ad8ec353c159&#45;&gt;node_6f38c90d90d24da0b82a005d7e77c99c -->
<g id="edge5" class="edge">
<title>node_0df7e13080ed46f6bae9ad8ec353c159&#45;&gt;node_6f38c90d90d24da0b82a005d7e77c99c</title>
<path fill="none" stroke="black" stroke-dasharray="5,2" d="M547.97,-197.57C579.74,-186.76 622.01,-168.39 651,-140.5 673.52,-118.84 688.63,-85.95 697.22,-62.66"/>
<polygon fill="black" stroke="black" points="700.42,-64.11 700.42,-53.51 693.81,-61.8 700.42,-64.11"/>
<text xml:space="preserve" text-anchor="middle" x="685.81" y="-117.45" font-family="Times,serif" font-size="14.00">[0]</text>
</g>
<!-- node_62af1d23109140f383e89167c16a646e -->
<g id="node8" class="node">
<title>node_62af1d23109140f383e89167c16a646e</title>
<polygon fill="white" stroke="black" points="435,-140.5 228.47,-122.5 435,-104.5 641.53,-122.5 435,-140.5"/>
<text xml:space="preserve" text-anchor="middle" x="435" y="-117.45" font-family="Times,serif" font-size="14.00">IterativeSplineParameterizationTask</text>
</g>
<!-- node_0df7e13080ed46f6bae9ad8ec353c159&#45;&gt;node_62af1d23109140f383e89167c16a646e -->
<g id="edge6" class="edge">
<title>node_0df7e13080ed46f6bae9ad8ec353c159&#45;&gt;node_62af1d23109140f383e89167c16a646e</title>
<path fill="none" stroke="black" stroke-dasharray="5,2" d="M491.34,-194.13C481.16,-181.37 466.67,-163.2 454.93,-148.49"/>
<polygon fill="black" stroke="black" points="457.96,-146.67 448.99,-141.04 452.49,-151.04 457.96,-146.67"/>
<text xml:space="preserve" text-anchor="middle" x="483.56" y="-161.7" font-family="Times,serif" font-size="14.00">[1]</text>
</g>
<!-- node_62af1d23109140f383e89167c16a646e&#45;&gt;node_6f38c90d90d24da0b82a005d7e77c99c -->
<g id="edge7" class="edge">
<title>node_62af1d23109140f383e89167c16a646e&#45;&gt;node_6f38c90d90d24da0b82a005d7e77c99c</title>
<path fill="none" stroke="black" stroke-dasharray="5,2" d="M477.94,-107.79C527.44,-91.99 608.51,-66.12 659.48,-49.85"/>
<polygon fill="black" stroke="black" points="660.28,-53.27 668.74,-46.89 658.15,-46.6 660.28,-53.27"/>
<text xml:space="preserve" text-anchor="middle" x="602.65" y="-73.2" font-family="Times,serif" font-size="14.00">[0]</text>
</g>
<!-- node_81834cfd99934631971a3f172e26c364 -->
<g id="node9" class="node">
<title>node_81834cfd99934631971a3f172e26c364</title>
<ellipse fill="white" stroke="black" cx="435" cy="-34" rx="48.79" ry="18"/>
<text xml:space="preserve" text-anchor="middle" x="435" y="-28.95" font-family="Times,serif" font-size="14.00">DoneTask</text>
</g>
<!-- node_62af1d23109140f383e89167c16a646e&#45;&gt;node_81834cfd99934631971a3f172e26c364 -->
<g id="edge8" class="edge">
<title>node_62af1d23109140f383e89167c16a646e&#45;&gt;node_81834cfd99934631971a3f172e26c364</title>
<path fill="none" stroke="black" stroke-dasharray="5,2" d="M435,-104.41C435,-92.76 435,-77.05 435,-63.52"/>
<polygon fill="black" stroke="black" points="438.5,-63.86 435,-53.86 431.5,-63.86 438.5,-63.86"/>
<text xml:space="preserve" text-anchor="middle" x="442.88" y="-73.2" font-family="Times,serif" font-size="14.00">[1]</text>
</g>
<!-- node_daaa3051754a4b27b3b534c9beae464a -->
<g id="node10" class="node">
<title>node_daaa3051754a4b27b3b534c9beae464a</title>
<polygon fill="white" stroke="black" points="608,-494.5 507.87,-476.5 608,-458.5 708.13,-476.5 608,-494.5"/>
<text xml:space="preserve" text-anchor="middle" x="608" y="-471.45" font-family="Times,serif" font-size="14.00">MinLengthTask</text>
</g>
<!-- node_daaa3051754a4b27b3b534c9beae464a&#45;&gt;node_0887059c203a471ebc3f1694054d5e66 -->
<g id="edge10" class="edge">
<title>node_daaa3051754a4b27b3b534c9beae464a&#45;&gt;node_0887059c203a471ebc3f1694054d5e66</title>
<path fill="none" stroke="black" stroke-dasharray="5,2" d="M599.56,-459.63C592.97,-447.23 583.66,-429.73 575.96,-415.25"/>
<polygon fill="black" stroke="black" points="579.19,-413.87 571.41,-406.69 573.01,-417.16 579.19,-413.87"/>
<text xml:space="preserve" text-anchor="middle" x="597" y="-427.2" font-family="Times,serif" font-size="14.00">[1]</text>
</g>
<!-- node_daaa3051754a4b27b3b534c9beae464a&#45;&gt;node_6f38c90d90d24da0b82a005d7e77c99c -->
<g id="edge9" class="edge">
<title>node_daaa3051754a4b27b3b534c9beae464a&#45;&gt;node_6f38c90d90d24da0b82a005d7e77c99c</title>
<path fill="none" stroke="black" stroke-dasharray="5,2" d="M644.81,-464.64C672.69,-454.33 709.28,-435.89 728,-406 807.29,-279.42 762.71,-213.42 721,-70 720.29,-67.58 719.47,-65.1 718.57,-62.63"/>
<polygon fill="black" stroke="black" points="721.89,-61.51 714.9,-53.54 715.4,-64.13 721.89,-61.51"/>
<text xml:space="preserve" text-anchor="middle" x="779.42" y="-250.2" font-family="Times,serif" font-size="14.00">[0]</text>
</g>
</g>
</svg>
