<?xml version="1.0" encoding="UTF-8" standalone="no"?>
<!DOCTYPE svg PUBLIC "-//W3C//DTD SVG 1.1//EN"
 "http://www.w3.org/Graphics/SVG/1.1/DTD/svg11.dtd">
<!-- Generated by graphviz version 15.0.0 (20260523.1842)
 -->
<!-- Title: TaskComposer Pages: 1 -->
<svg width="856pt" height="1019pt"
 viewBox="0.00 0.00 856.00 1019.00" xmlns="http://www.w3.org/2000/svg" xmlns:xlink="http://www.w3.org/1999/xlink">
<g id="graph0" class="graph" transform="scale(1 1) rotate(0) translate(4 1014.82)">
<title>TaskComposer</title>
<polygon fill="white" stroke="none" points="-4,4 -4,-1014.82 852,-1014.82 852,4 -4,4"/>
<g id="clust1" class="cluster">
<title>cluster_e48ebd68d32140a1b9a754636698f1e7</title>
<polygon fill="white" stroke="black" points="8,-521.37 8,-985.98 236,-985.98 236,-521.37 8,-521.37"/>
<text xml:space="preserve" text-anchor="middle" x="122" y="-968.68" font-family="Times,serif" font-size="14.00">FreespacePipeline</text>
<text xml:space="preserve" text-anchor="start" x="72.88" y="-952.18" font-family="Times,serif" font-size="14.00">Time: 0.585s</text>
</g>
<g id="clust2" class="cluster">
<title>cluster_f6cc45655ea747eca68a9313eb9c37e8</title>
<polygon fill="white" stroke="black" points="244,-8 244,-1002.82 840,-1002.82 840,-8 244,-8"/>
<text xml:space="preserve" text-anchor="middle" x="542" y="-985.52" font-family="Times,serif" font-size="14.00">MotionPlanningTask</text>
<text xml:space="preserve" text-anchor="start" x="484.62" y="-969.02" font-family="Times,serif" font-size="14.00">Time: 0.585s</text>
</g>
<!-- node_72f2f537fc1847a58598ed705a15ea25 -->
<g id="node1" class="node">
<title>node_72f2f537fc1847a58598ed705a15ea25</title>
<ellipse fill="green" stroke="black" cx="122" cy="-896.32" rx="100.94" ry="40.66"/>
<text xml:space="preserve" text-anchor="middle" x="122" y="-907.77" font-family="Times,serif" font-size="14.00">ProcessInputTask</text>
<text xml:space="preserve" text-anchor="start" x="58.62" y="-891.27" font-family="Times,serif" font-size="14.00">Time: 0.000s</text>
<text xml:space="preserve" text-anchor="start" x="58.62" y="-874.77" font-family="Times,serif" font-size="14.00">Status Msg: Successful</text>
</g>
<!-- node_7f12e55646724777885dda44700744bd -->
<g id="node2" class="node">
<title>node_7f12e55646724777885dda44700744bd</title>
<ellipse fill="green" stroke="black" cx="122" cy="-728.82" rx="100.94" ry="40.66"/>
<text xml:space="preserve" text-anchor="middle" x="122" y="-740.27" font-family="Times,serif" font-size="14.00">FormatInputTask</text>
<text xml:space="preserve" text-anchor="start" x="58.62" y="-723.77" font-family="Times,serif" font-size="14.00">Time: 0.000s</text>
<text xml:space="preserve" text-anchor="start" x="58.62" y="-707.27" font-family="Times,serif" font-size="14.00">Status Msg: Successful</text>
</g>
<!-- node_72f2f537fc1847a58598ed705a15ea25&#45;&gt;node_7f12e55646724777885dda44700744bd -->
<g id="edge1" class="edge">
<title>node_72f2f537fc1847a58598ed705a15ea25&#45;&gt;node_7f12e55646724777885dda44700744bd</title>
<path fill="none" stroke="black" d="M122,-855.25C122,-832.97 122,-805.01 122,-781.14"/>
<polygon fill="black" stroke="black" points="125.5,-781.31 122,-771.31 118.5,-781.31 125.5,-781.31"/>
</g>
<!-- node_f6cc45655ea747eca68a9313eb9c37e8 -->
<g id="node3" class="node">
<title>node_f6cc45655ea747eca68a9313eb9c37e8</title>
<polygon fill="none" stroke="red" points="228.2,-593.27 19.8,-593.27 15.8,-589.27 15.8,-529.37 224.2,-529.37 228.2,-533.37 228.2,-593.27"/>
<polyline fill="none" stroke="red" points="224.2,-589.27 15.8,-589.27"/>
<polyline fill="none" stroke="red" points="224.2,-589.27 224.2,-529.37"/>
<polyline fill="none" stroke="red" points="224.2,-589.27 228.2,-593.27"/>
<text xml:space="preserve" text-anchor="middle" x="122" y="-572.77" font-family="Times,serif" font-size="14.00">Subgraph: MotionPlanningTask</text>
<text xml:space="preserve" text-anchor="start" x="23" y="-556.27" font-family="Times,serif" font-size="14.00">Time: 0.585s</text>
<text xml:space="preserve" text-anchor="start" x="23" y="-539.77" font-family="Times,serif" font-size="14.00">Status Msg: Error (Abort Triggered)</text>
</g>
<!-- node_7f12e55646724777885dda44700744bd&#45;&gt;node_f6cc45655ea747eca68a9313eb9c37e8 -->
<g id="edge2" class="edge">
<title>node_7f12e55646724777885dda44700744bd&#45;&gt;node_f6cc45655ea747eca68a9313eb9c37e8</title>
<path fill="none" stroke="black" d="M122,-687.75C122,-662.7 122,-630.46 122,-604.94"/>
<polygon fill="black" stroke="black" points="125.5,-605.25 122,-595.25 118.5,-605.25 125.5,-605.25"/>
</g>
<!-- node_25c8146aedb74cd397daa57ccfabd929 -->
<g id="node4" class="node">
<title>node_25c8146aedb74cd397daa57ccfabd929</title>
<ellipse fill="red" stroke="black" cx="403" cy="-56.66" rx="151.32" ry="40.66"/>
<text xml:space="preserve" text-anchor="middle" x="403" y="-68.11" font-family="Times,serif" font-size="14.00">ErrorTask</text>
<text xml:space="preserve" text-anchor="start" x="304" y="-51.61" font-family="Times,serif" font-size="14.00">Time: 0.000s</text>
<text xml:space="preserve" text-anchor="start" x="304" y="-35.11" font-family="Times,serif" font-size="14.00">Status Msg: Error (Abort Triggered)</text>
</g>
<!-- node_31f93a747f6d471394fa74fa96dd431c -->
<g id="node5" class="node">
<title>node_31f93a747f6d471394fa74fa96dd431c</title>
<polygon fill="green" stroke="black" points="509,-618.82 311.5,-561.32 509,-503.82 706.5,-561.32 509,-618.82"/>
<text xml:space="preserve" text-anchor="middle" x="509" y="-572.77" font-family="Times,serif" font-size="14.00">TrajOptMotionPlannerTask</text>
<text xml:space="preserve" text-anchor="start" x="418.25" y="-556.27" font-family="Times,serif" font-size="14.00">Time: 0.039s</text>
<text xml:space="preserve" text-anchor="start" x="418.25" y="-539.77" font-family="Times,serif" font-size="14.00">Status Msg: Found valid solution</text>
</g>
<!-- node_31f93a747f6d471394fa74fa96dd431c&#45;&gt;node_25c8146aedb74cd397daa57ccfabd929 -->
<g id="edge3" class="edge">
<title>node_31f93a747f6d471394fa74fa96dd431c&#45;&gt;node_25c8146aedb74cd397daa57ccfabd929</title>
<path fill="none" stroke="black" stroke-dasharray="5,2" d="M423.21,-528.34C389.42,-511.02 354.16,-485.93 335,-451.32 289.15,-368.49 318.82,-331.59 335,-238.32 344.92,-181.11 358.06,-169.47 379,-115.32 379.96,-112.84 380.95,-110.31 381.96,-107.77"/>
<polygon fill="black" stroke="black" points="385.14,-109.24 385.64,-98.66 378.65,-106.62 385.14,-109.24"/>
<text xml:space="preserve" text-anchor="middle" x="350.58" y="-207.02" font-family="Times,serif" font-size="14.00">[0]</text>
</g>
<!-- node_4eb464bff3924ea6a7f532ba9c1907b5 -->
<g id="node6" class="node">
<title>node_4eb464bff3924ea6a7f532ba9c1907b5</title>
<polygon fill="red" stroke="black" points="588,-451.32 344,-344.82 588,-238.32 832,-344.82 588,-451.32"/>
<text xml:space="preserve" text-anchor="middle" x="588" y="-380.77" font-family="Times,serif" font-size="14.00">DiscreteContactCheckTask</text>
<text xml:space="preserve" text-anchor="start" x="474" y="-364.27" font-family="Times,serif" font-size="14.00">Time: 0.001s</text>
<text xml:space="preserve" text-anchor="middle" x="588" y="-347.77" font-family="Times,serif" font-size="14.00">Status Msg: Contact(s) found: </text>
<text xml:space="preserve" text-anchor="middle" x="588" y="-331.27" font-family="Times,serif" font-size="14.00">Format: Step: [link_a, link_b] @ distance</text>
<text xml:space="preserve" text-anchor="middle" x="588" y="-314.77" font-family="Times,serif" font-size="14.00">Step 0.0: [base_link, link_5] @ 0.5714</text>
</g>
<!-- node_31f93a747f6d471394fa74fa96dd431c&#45;&gt;node_4eb464bff3924ea6a7f532ba9c1907b5 -->
<g id="edge4" class="edge">
<title>node_31f93a747f6d471394fa74fa96dd431c&#45;&gt;node_4eb464bff3924ea6a7f532ba9c1907b5</title>
<path fill="none" stroke="black" stroke-width="2" d="M527.92,-508.94C534.72,-490.49 542.64,-468.98 550.46,-447.75"/>
<polygon fill="black" stroke="black" stroke-width="2" points="553.19,-450.46 553.36,-439.87 546.62,-448.04 553.19,-450.46"/>
<text xml:space="preserve" text-anchor="middle" x="549.3" y="-472.52" font-family="Times,serif" font-size="14.00">[1]</text>
</g>
<!-- node_4eb464bff3924ea6a7f532ba9c1907b5&#45;&gt;node_25c8146aedb74cd397daa57ccfabd929 -->
<g id="edge7" class="edge">
<title>node_4eb464bff3924ea6a7f532ba9c1907b5&#45;&gt;node_25c8146aedb74cd397daa57ccfabd929</title>
<path fill="none" stroke="black" stroke-width="2" d="M480.78,-284.63C445.56,-259.21 410.52,-226.01 391.25,-185.82 379.82,-161.97 381.47,-132.77 386.55,-108.28"/>
<polygon fill="black" stroke="black" stroke-width="2" points="389.54,-110.87 388.4,-100.34 382.72,-109.28 389.54,-110.87"/>
<text xml:space="preserve" text-anchor="middle" x="399.12" y="-162.77" font-family="Times,serif" font-size="14.00">[0]</text>
</g>
<!-- node_af52f7c00d3d4d94a37747bf6ccfa125 -->
<g id="node8" class="node">
<title>node_af52f7c00d3d4d94a37747bf6ccfa125</title>
<polygon fill="white" stroke="black" points="623,-185.82 416.47,-167.82 623,-149.82 829.53,-167.82 623,-185.82"/>
<text xml:space="preserve" text-anchor="middle" x="623" y="-162.77" font-family="Times,serif" font-size="14.00">IterativeSplineParameterizationTask</text>
</g>
<!-- node_4eb464bff3924ea6a7f532ba9c1907b5&#45;&gt;node_af52f7c00d3d4d94a37747bf6ccfa125 -->
<g id="edge8" class="edge">
<title>node_4eb464bff3924ea6a7f532ba9c1907b5&#45;&gt;node_af52f7c00d3d4d94a37747bf6ccfa125</title>
<path fill="none" stroke="black" stroke-dasharray="5,2" d="M607.5,-246.34C611.11,-228.25 614.62,-210.74 617.37,-196.95"/>
<polygon fill="black" stroke="black" points="620.76,-197.84 619.29,-187.35 613.9,-196.47 620.76,-197.84"/>
<text xml:space="preserve" text-anchor="middle" x="623.32" y="-207.02" font-family="Times,serif" font-size="14.00">[1]</text>
</g>
<!-- node_3b52c446fd7743e5887f956acb8d3403 -->
<g id="node7" class="node">
<title>node_3b52c446fd7743e5887f956acb8d3403</title>
<polygon fill="green" stroke="black" points="487,-786.32 289.5,-728.82 487,-671.32 684.5,-728.82 487,-786.32"/>
<text xml:space="preserve" text-anchor="middle" x="487" y="-740.27" font-family="Times,serif" font-size="14.00">OMPLMotionPlannerTask</text>
<text xml:space="preserve" text-anchor="start" x="396.25" y="-723.77" font-family="Times,serif" font-size="14.00">Time: 0.047s</text>
<text xml:space="preserve" text-anchor="start" x="396.25" y="-707.27" font-family="Times,serif" font-size="14.00">Status Msg: Found valid solution</text>
</g>
<!-- node_3b52c446fd7743e5887f956acb8d3403&#45;&gt;node_25c8146aedb74cd397daa57ccfabd929 -->
<g id="edge5" class="edge">
<title>node_3b52c446fd7743e5887f956acb8d3403&#45;&gt;node_25c8146aedb74cd397daa57ccfabd929</title>
<path fill="none" stroke="black" stroke-dasharray="5,2" d="M398.57,-696.74C362.79,-679.49 324.84,-654.2 303,-618.82 263.8,-555.31 293.86,-525.9 291.25,-451.32 287.94,-356.71 265.73,-329.48 291.25,-238.32 305.07,-188.93 336.86,-139.88 363.01,-105.38"/>
<polygon fill="black" stroke="black" points="365.61,-107.75 368.94,-97.69 360.06,-103.47 365.61,-107.75"/>
<text xml:space="preserve" text-anchor="middle" x="299.12" y="-339.77" font-family="Times,serif" font-size="14.00">[0]</text>
</g>
<!-- node_3b52c446fd7743e5887f956acb8d3403&#45;&gt;node_31f93a747f6d471394fa74fa96dd431c -->
<g id="edge6" class="edge">
<title>node_3b52c446fd7743e5887f956acb8d3403&#45;&gt;node_31f93a747f6d471394fa74fa96dd431c</title>
<path fill="none" stroke="black" stroke-width="2" d="M494.26,-673.17C496.17,-658.84 498.24,-643.23 500.22,-628.37"/>
<polygon fill="black" stroke="black" stroke-width="2" points="503.46,-630.57 501.31,-620.19 496.52,-629.64 503.46,-630.57"/>
<text xml:space="preserve" text-anchor="middle" x="506.53" y="-640.02" font-family="Times,serif" font-size="14.00">[1]</text>
</g>
<!-- node_af52f7c00d3d4d94a37747bf6ccfa125&#45;&gt;node_25c8146aedb74cd397daa57ccfabd929 -->
<g id="edge11" class="edge">
<title>node_af52f7c00d3d4d94a37747bf6ccfa125&#45;&gt;node_25c8146aedb74cd397daa57ccfabd929</title>
<path fill="none" stroke="black" stroke-dasharray="5,2" d="M593.33,-152.1C565.34,-138.21 522.08,-116.74 483.88,-97.79"/>
<polygon fill="black" stroke="black" points="485.64,-94.76 475.13,-93.45 482.53,-101.03 485.64,-94.76"/>
<text xml:space="preserve" text-anchor="middle" x="559.71" y="-118.52" font-family="Times,serif" font-size="14.00">[0]</text>
</g>
<!-- node_d98fce3917c64287bfa3af4e3987be13 -->
<g id="node10" class="node">
<title>node_d98fce3917c64287bfa3af4e3987be13</title>
<ellipse fill="white" stroke="black" cx="623" cy="-56.66" rx="48.79" ry="18"/>
<text xml:space="preserve" text-anchor="middle" x="623" y="-51.61" font-family="Times,serif" font-size="14.00">DoneTask</text>
</g>
<!-- node_af52f7c00d3d4d94a37747bf6ccfa125&#45;&gt;node_d98fce3917c64287bfa3af4e3987be13 -->
<g id="edge12" class="edge">
<title>node_af52f7c00d3d4d94a37747bf6ccfa125&#45;&gt;node_d98fce3917c64287bfa3af4e3987be13</title>
<path fill="none" stroke="black" stroke-dasharray="5,2" d="M623,-149.76C623,-132.8 623,-106.46 623,-86.29"/>
<polygon fill="black" stroke="black" points="626.5,-86.47 623,-76.47 619.5,-86.47 626.5,-86.47"/>
<text xml:space="preserve" text-anchor="middle" x="630.88" y="-118.52" font-family="Times,serif" font-size="14.00">[1]</text>
</g>
<!-- node_ad0e17be6a714cd4bdd96b59dbf83c56 -->
<g id="node9" class="node">
<title>node_ad0e17be6a714cd4bdd96b59dbf83c56</title>
<polygon fill="green" stroke="black" points="441,-953.82 298.25,-896.32 441,-838.82 583.75,-896.32 441,-953.82"/>
<text xml:space="preserve" text-anchor="middle" x="441" y="-907.77" font-family="Times,serif" font-size="14.00">MinLengthTask</text>
<text xml:space="preserve" text-anchor="start" x="377.62" y="-891.27" font-family="Times,serif" font-size="14.00">Time: 0.498s</text>
<text xml:space="preserve" text-anchor="start" x="377.62" y="-874.77" font-family="Times,serif" font-size="14.00">Status Msg: Successful</text>
</g>
<!-- node_ad0e17be6a714cd4bdd96b59dbf83c56&#45;&gt;node_25c8146aedb74cd397daa57ccfabd929 -->
<g id="edge9" class="edge">
<title>node_ad0e17be6a714cd4bdd96b59dbf83c56&#45;&gt;node_25c8146aedb74cd397daa57ccfabd929</title>
<path fill="none" stroke="black" stroke-dasharray="5,2" d="M371.66,-866.5C338.08,-848.66 300.81,-822.22 281,-786.32 222.16,-679.69 251.56,-357.83 275,-238.32 286.9,-177.64 296.48,-159.24 340,-115.32 343.78,-111.5 347.75,-107.61 351.78,-103.75"/>
<polygon fill="black" stroke="black" points="354.15,-106.33 359.01,-96.91 349.34,-101.24 354.15,-106.33"/>
<text xml:space="preserve" text-anchor="middle" x="256.87" y="-472.52" font-family="Times,serif" font-size="14.00">[0]</text>
</g>
<!-- node_ad0e17be6a714cd4bdd96b59dbf83c56&#45;&gt;node_3b52c446fd7743e5887f956acb8d3403 -->
<g id="edge10" class="edge">
<title>node_ad0e17be6a714cd4bdd96b59dbf83c56&#45;&gt;node_3b52c446fd7743e5887f956acb8d3403</title>
<path fill="none" stroke="black" stroke-width="2" d="M455.18,-844.31C459.66,-828.18 464.67,-810.16 469.36,-793.27"/>
<polygon fill="black" stroke="black" stroke-width="2" points="472.28,-795.86 471.58,-785.29 465.53,-793.98 472.28,-795.86"/>
<text xml:space="preserve" text-anchor="middle" x="473.25" y="-807.52" font-family="Times,serif" font-size="14.00">[1]</text>
</g>
</g>
</svg>
